<svg xmlns="http://www.w3.org/2000/svg" viewBox="0 0 24 24" width="24" height="24" fill="#E1306C"><path d="M12 7.2c-2.65 0-4.8 2.15-4.8 4.8S9.35 16.8 12 16.8s4.8-2.15 4.8-4.8S14.65 7.2 12 7.2zm0 7.9a3.1 3.1 0 1 1 0-6.2 3.1 3.1 0 0 1 0 6.2zm6.1-8.1a1.12 1.12 0 1 1-2.24 0 1.12 1.12 0 0 1 2.24 0zM12 4.6c2.1 0 2.35.01 3.18.05.77.04 1.19.16 1.47.27.37.14.64.32.92.6.28.28.46.55.6.92.11.28.23.7.27 1.47.04.83.05 1.08.05 3.18s-.01 2.35-.05 3.18c-.04.77-.16 1.19-.27 1.47-.14.37-.32.64-.6.92-.28.28-.55.46-.92.6-.28.11-.7.23-1.47.27-.83.04-1.08.05-3.18.05s-2.35-.01-3.18-.05c-.77-.04-1.19-.16-1.47-.27a2.5 2.5 0 0 1-.92-.6 2.5 2.5 0 0 1-.6-.92c-.11-.28-.23-.7-.27-1.47C4.61 14.35 4.6 14.1 4.6 12s.01-2.35.05-3.18c.04-.77.16-1.19.27-1.47.14-.37.32-.64.6-.92.28-.28.55-.46.92-.6.28-.11.7-.23 1.47-.27.83-.04 1.08-.05 3.18-.05z"/></svg>